<svg xmlns="http://www.w3.org/2000/svg" width="891.996" height="719.798" viewBox="0 0 891.996 719.798">
  <g id="undraw_master_plan_95wa" transform="translate(-52.446 -17.216)">
    <circle id="Ellipse_1" data-name="Ellipse 1" cx="14" cy="14" r="14" transform="translate(74 89)" fill="#f2f2f2"/>
    <circle id="Ellipse_2" data-name="Ellipse 2" cx="14" cy="14" r="14" transform="translate(413 40)" fill="#f2f2f2"/>
    <circle id="Ellipse_3" data-name="Ellipse 3" cx="25" cy="25" r="25" transform="translate(393 251)" fill="#f2f2f2"/>
    <circle id="Ellipse_4" data-name="Ellipse 4" cx="6" cy="6" r="6" transform="translate(327 56)" fill="#ff6584"/>
    <circle id="Ellipse_5" data-name="Ellipse 5" cx="6" cy="6" r="6" transform="translate(57 297)" fill="#ff6584"/>
    <circle id="Ellipse_6" data-name="Ellipse 6" cx="6" cy="6" r="6" transform="translate(888 310)" fill="#ff6584"/>
    <circle id="Ellipse_7" data-name="Ellipse 7" cx="6" cy="6" r="6" transform="translate(234 190)" fill="#f2f2f2"/>
    <circle id="Ellipse_8" data-name="Ellipse 8" cx="6" cy="6" r="6" transform="translate(894 56)" fill="#f2f2f2"/>
    <circle id="Ellipse_9" data-name="Ellipse 9" cx="6" cy="6" r="6" transform="translate(82 481)" fill="#f2f2f2"/>
    <circle id="Ellipse_10" data-name="Ellipse 10" cx="6" cy="6" r="6" transform="translate(804 423)" fill="#f2f2f2"/>
    <circle id="Ellipse_11" data-name="Ellipse 11" cx="6" cy="6" r="6" transform="translate(630 50)" fill="#f2f2f2"/>
    <path id="Path_190" data-name="Path 190" d="M843,250.493a15,15,0,1,1,15-15A15,15,0,0,1,843,250.493Zm0-28a13,13,0,1,0,13,13A13,13,0,0,0,843,222.493Z" transform="translate(-114 -81.493)" fill="#f2f2f2"/>
    <path id="Path_191" data-name="Path 191" d="M815,288.493a11,11,0,1,1,11-11,11,11,0,0,1-11,11Zm0-20a9,9,0,1,0,9,9,9,9,0,0,0-9-9Z" transform="translate(-114 -81.493)" fill="#f2f2f2"/>
    <path id="Path_192" data-name="Path 192" d="M877,341.493a11,11,0,1,1,11-11,11,11,0,0,1-11,11Zm0-20a9,9,0,1,0,9,9,9,9,0,0,0-9-9Z" transform="translate(-114 -81.493)" fill="#f2f2f2"/>
    <path id="Path_193" data-name="Path 193" d="M857,356.493a82,82,0,1,1,82-82,82,82,0,0,1-82,82Zm0-162a80,80,0,1,0,80,80,80,80,0,0,0-80-80Z" transform="translate(-114 -81.493)" fill="#f2f2f2"/>
    <path id="Path_194" data-name="Path 194" d="M857,307.493c-68.411,0-122-14.5-122-33,0-10.783,15.905-20.048,44.786-26.09l.41,1.958C752.744,256.1,737,264.9,737,274.493c0,16.8,54.953,31,120,31s120-14.2,120-31c0-9.612-15.8-18.419-43.343-24.163l.408-1.958C963.042,254.415,979,263.691,979,274.493,979,293,925.411,307.493,857,307.493Z" transform="translate(-114 -81.493)" fill="#f2f2f2"/>
    <path id="Path_195" data-name="Path 195" d="M795.441,624.709c-2.774,0-5.577-.044-8.328-.13l.063-2c3.95.123,7.981.157,11.95.1l.027,2Q797.3,624.709,795.441,624.709Zm15.745-.464-.117-2c3.956-.233,7.963-.562,11.909-.975l.209,1.988c-3.976.417-8.014.748-12,.982Zm-36.1-.312c-3.989-.306-8.021-.706-11.982-1.192l.244-1.984c3.932.481,7.932.88,11.891,1.183Zm60.039-2.2-.3-1.977c3.931-.6,7.892-1.289,11.769-2.06l.39,1.961c-3.908.777-7.9,1.475-11.86,2.076ZM751.194,621c-3.941-.668-7.919-1.436-11.823-2.283l.424-1.955c3.875.842,7.822,1.6,11.733,2.266Zm107.548-3.962-.48-1.941c3.858-.954,7.738-2.009,11.532-3.134l.568,1.918c-3.823,1.134-7.732,2.2-11.62,3.157Zm-131.076-1.146c-3.866-1.028-7.756-2.159-11.562-3.363l.6-1.906c3.778,1.194,7.638,2.316,11.474,3.336Zm154.158-5.7-.656-1.889c3.744-1.3,7.51-2.709,11.194-4.184l.742,1.857c-3.712,1.485-7.507,2.9-11.28,4.215Zm-177.146-1.566c-3.754-1.38-7.532-2.869-11.227-4.426l.776-1.844c3.667,1.545,7.416,3.022,11.142,4.393Zm199.476-7.368-.828-1.82c3.6-1.634,7.21-3.378,10.742-5.184l.91,1.781C911.419,597.856,907.777,599.613,904.154,601.259Zm-221.71-1.994c-3.609-1.72-7.231-3.549-10.766-5.437l.942-1.764c3.508,1.874,7.1,3.689,10.684,5.4Zm243.109-8.944-.99-1.736c3.448-1.968,6.891-4.036,10.229-6.148l1.068,1.689c-3.365,2.129-6.833,4.214-10.309,6.2ZM661.177,587.9c-3.433-2.042-6.87-4.2-10.216-6.4l1.1-1.67c3.32,2.188,6.731,4.324,10.138,6.351Zm284.7-10.44-1.145-1.639c3.247-2.269,6.487-4.645,9.631-7.061l1.219,1.586c-3.167,2.434-6.433,4.828-9.705,7.113ZM641.05,574.647c-3.228-2.345-6.453-4.8-9.585-7.3l1.248-1.562c3.108,2.481,6.309,4.919,9.512,7.245Zm323.9-11.846-1.289-1.529c3.026-2.554,6.038-5.215,8.953-7.91l1.357,1.469C971.038,557.546,968,560.228,964.953,562.8Zm-342.728-3.186c-3.006-2.633-5.993-5.371-8.877-8.14l1.385-1.443c2.862,2.748,5.826,5.466,8.81,8.079Zm360.4-13.161-1.424-1.4c2.79-2.827,5.55-5.753,8.2-8.7l1.486,1.338c-2.673,2.965-5.453,5.913-8.264,8.761Zm-377.773-3.512c-2.758-2.9-5.482-5.9-8.1-8.91l1.511-1.311c2.594,2.989,5.3,5.964,8.035,8.842Zm393.893-14.38-1.545-1.27c2.521-3.067,5-6.232,7.378-9.409l1.6,1.2c-2.391,3.2-4.891,6.392-7.435,9.482Zm-409.671-3.8c-2.477-3.13-4.916-6.361-7.25-9.6l1.623-1.168c2.316,3.218,4.736,6.425,7.195,9.532Zm424.1-15.5-1.654-1.123c2.23-3.284,4.415-6.664,6.492-10.048l1.705,1.047c-2.1,3.409-4.3,6.815-6.548,10.124ZM575.024,505.24c-2.179-3.341-4.312-6.778-6.34-10.22L570.407,494c2.013,3.415,4.129,6.827,6.292,10.142Zm450.766-16.511-1.75-.967c1.92-3.475,3.785-7.043,5.546-10.607l1.793.887c-1.779,3.59-3.659,7.186-5.589,10.687Zm-462.971-4.205c-1.865-3.525-3.674-7.143-5.375-10.75l1.809-.854c1.689,3.58,3.483,7.17,5.334,10.668Zm473.651-17.416-1.832-.8c1.594-3.64,3.124-7.367,4.549-11.078l1.867.717c-1.434,3.74-2.974,7.5-4.584,11.164Zm-483.9-4.315c-1.533-3.68-3-7.444-4.364-11.19l1.88-.684c1.352,3.718,2.809,7.453,4.33,11.1Zm492.551-18.216-1.9-.629c1.248-3.761,2.426-7.6,3.5-11.426l1.926.541c-1.086,3.85-2.266,7.724-3.526,11.513Zm-500.767-4.383c-1.19-3.812-2.308-7.705-3.323-11.574l1.935-.508c1.007,3.84,2.117,7.7,3.3,11.486ZM1051.638,421.4l-1.948-.453c.9-3.854,1.714-7.791,2.434-11.7l1.967.361c-.73,3.938-1.55,7.9-2.45,11.79ZM538.244,416.9c-.834-3.906-1.589-7.886-2.243-11.83l1.973-.328c.65,3.915,1.4,7.864,2.227,11.74ZM1056,397.721l-1.982-.271c.538-3.917.992-7.911,1.351-11.872l1.992.18c-.366,3.992-.816,8.017-1.356,11.964ZM534.3,393.155c-.472-3.959-.859-7.991-1.151-11.984l2-.146c.29,3.964.674,7.965,1.143,11.895Zm523.869-19.409-2-.09c.178-3.963.269-7.982.269-11.946h2c0,3.993-.092,8.043-.271,12.035Zm-525.626-4.6c-.068-2.452-.1-4.954-.1-7.435q0-2.309.04-4.608l2,.035q-.04,2.282-.04,4.573c0,2.462.035,4.945.1,7.38Zm523.882-10.225c-.041-3.965-.174-7.984-.394-11.946l2-.111c.222,3.992.355,8.042.4,12.036ZM534.955,345.2l-2-.125c.25-4,.594-8.032,1.023-12l1.988.215C535.544,337.224,535.2,341.23,534.955,345.2ZM1055.1,335.061c-.4-3.943-.9-7.932-1.477-11.858l1.979-.292c.584,3.956,1.085,7.975,1.488,11.948ZM537.528,321.443l-1.977-.306c.613-3.957,1.325-7.944,2.116-11.854l1.96.4C538.842,313.56,538.136,317.517,537.528,321.443ZM1051.6,311.427c-.763-3.9-1.623-7.829-2.559-11.672l1.943-.473c.942,3.873,1.81,7.831,2.578,11.761Zm-509.337-13.4-1.94-.486c.971-3.874,2.047-7.779,3.2-11.609l1.915.575C544.3,290.306,543.229,294.182,542.265,298.026Zm503.685-9.813c-1.115-3.808-2.334-7.639-3.622-11.387l1.891-.65c1.3,3.777,2.527,7.638,3.651,11.475Zm-496.8-13.1-1.887-.663c1.329-3.781,2.764-7.58,4.265-11.291l1.854.75C551.893,267.591,550.469,271.361,549.15,275.113Zm489.033-9.495c-1.459-3.681-3.021-7.375-4.645-10.979l1.824-.821c1.636,3.633,3.21,7.355,4.68,11.064Zm-480.056-12.7-1.817-.835c1.67-3.638,3.448-7.286,5.284-10.842l1.777.917C561.548,245.685,559.784,249.3,558.127,252.915Zm470.269-9.036c-1.79-3.531-3.687-7.069-5.637-10.515l1.74-.985c1.966,3.473,3.876,7.038,5.68,10.6ZM569.1,231.65l-1.733-1c2-3.464,4.1-6.932,6.254-10.306l1.686,1.076c-2.139,3.349-4.227,6.79-6.206,10.228Zm447.542-8.535c-2.113-3.364-4.326-6.716-6.577-9.962l1.643-1.14c2.269,3.271,4.5,6.648,6.628,10.038ZM581.977,211.491l-1.635-1.152c2.306-3.27,4.716-6.529,7.167-9.687l1.58,1.226C586.657,205.012,584.264,208.246,581.977,211.491Zm421.064-7.992c-2.41-3.157-4.92-6.295-7.462-9.327l1.533-1.285c2.561,3.056,5.09,6.217,7.519,9.4ZM596.63,192.6l-1.522-1.3c2.587-3.039,5.284-6.064,8.015-8.991l1.462,1.364C601.875,186.582,599.2,189.584,596.63,192.6Zm391.07-7.408c-2.687-2.924-5.474-5.823-8.282-8.614l1.41-1.419c2.83,2.813,5.638,5.733,8.345,8.679ZM612.935,175.128l-1.4-1.43c2.86-2.8,5.819-5.564,8.8-8.221l1.332,1.492c-2.954,2.637-5.891,5.382-8.729,8.159Zm357.818-6.78c-2.944-2.67-5.984-5.3-9.035-7.828l1.275-1.541c3.073,2.543,6.137,5.2,9.1,7.888Zm-340-9.131-1.263-1.551c3.093-2.519,6.29-5,9.5-7.384l1.191,1.606C637,154.251,633.823,156.717,630.753,159.217Zm321.582-6.107c-3.177-2.392-6.445-4.739-9.715-6.976l1.129-1.65c3.295,2.253,6.588,4.618,9.789,7.029ZM649.936,145l-1.116-1.659c3.311-2.228,6.719-4.409,10.13-6.484l1.039,1.709c-3.386,2.059-6.768,4.224-10.054,6.434Zm282.659-5.391c-3.38-2.092-6.851-4.131-10.315-6.062l.973-1.747c3.492,1.945,6.989,4,10.4,6.107ZM670.324,132.6l-.96-1.755c3.5-1.917,7.094-3.776,10.674-5.527l.879,1.8c-3.554,1.737-7.118,3.583-10.594,5.485Zm241.37-4.634c-3.559-1.773-7.2-3.486-10.835-5.091l.809-1.829c3.659,1.617,7.333,3.343,10.919,5.13ZM691.745,122.12l-.795-1.835c3.66-1.586,7.4-3.108,11.128-4.522l.71,1.87C699.092,119.036,695.377,120.546,691.745,122.12ZM889.8,118.286c-3.7-1.436-7.493-2.806-11.266-4.072l.637-1.9c3.8,1.276,7.62,2.656,11.352,4.1Zm-175.744-4.637-.623-1.9c3.8-1.246,7.679-2.419,11.525-3.486l.535,1.927C721.673,111.248,717.825,112.412,714.053,113.649Zm153.064-2.974c-3.814-1.087-7.705-2.1-11.563-3.01l.459-1.946c3.889.916,7.809,1.937,11.653,3.032Zm-130.042-3.416-.445-1.95c3.9-.89,7.866-1.7,11.8-2.41l.355,1.968c-3.9.7-7.84,1.509-11.707,2.393Zm106.788-2.067c-3.895-.731-7.861-1.381-11.791-1.933l.277-1.98c3.96.556,7.958,1.211,11.883,1.948Zm-83.275-2.176-.265-1.982c3.959-.528,7.985-.973,11.967-1.319l.174,1.992c-3.952.345-7.947.785-11.877,1.309Zm59.616-1.147c-3.939-.371-7.949-.657-11.919-.849l.1-2c4,.194,8.039.482,12.009.856Zm-35.815-.929-.084-2c3.676-.153,7.422-.231,11.136-.232h.905l-.006,2h-.9c-3.686,0-7.4.079-11.052.231Z" transform="translate(-114 -81.493)" fill="#f2f2f2"/>
    <path id="Path_196" data-name="Path 196" d="M569.914,467.5c9.366-11.33,19.941-21.981,32.848-29.018s28.455-10.159,42.547-5.975c10.519,3.124,19.486,10,27.784,17.176,17,14.711,32.679,31.555,52.733,41.721s46.478,12.063,63.511-2.612c13.481-11.615,19.228-31.732,35.327-39.313,15.869-7.473,34.27.552,50.373,7.506a421.237,421.237,0,0,0,67.648,22.63c15.66,3.8,31.791,6.711,47.832,5.183s32.142-7.95,42.6-20.2" transform="translate(-114 -81.493)" fill="#f2f2f2"/>
    <path id="Path_197" data-name="Path 197" d="M493.446,411.216h40.376a141.219,141.219,0,0,0,0-48.141H493.446a86.623,86.623,0,0,1,0,48.141Z" transform="translate(-114 -81.493)" fill="#5bc0be"/>
    <path id="Path_198" data-name="Path 198" d="M166.446,433.216h40.376a141.218,141.218,0,0,0,0-48.141H166.446A86.622,86.622,0,0,1,166.446,433.216Z" transform="translate(-114 -81.493)" fill="#5bc0be"/>
    <path id="Path_199" data-name="Path 199" d="M869.446,287.216h40.377a141.219,141.219,0,0,0,0-48.141H869.446A86.623,86.623,0,0,1,869.446,287.216Z" transform="translate(-114 -81.493)" fill="#5bc0be"/>
    <path id="Path_200" data-name="Path 200" d="M206.688,657.431l-8.463,26.93,26.16,2.308-2.308-29.238Z" fill="#ffb9b9"/>
    <path id="Path_201" data-name="Path 201" d="M333.644,678.205v36.933h30.007l-8.463-36.933Z" fill="#ffb9b9"/>
    <path id="Path_202" data-name="Path 202" d="M340.693,491.168l-12.31,116.953s-15.388,103.1-12.311,119.261-.769,18.466-.769,18.466h23.083s-.769-10,3.847-14.619,2.308-18.466,2.308-18.466l58.476-178.507L436.1,634.281s5.386,110.028,6.155,111.567,3.078,22.313,3.078,22.313H473.8s-3.847-12.311,1.539-16.158,10-.769,5.386-7.694-6.155-15.388-4.617-19.236,1.539-19.236,1.539-19.236-2.308-207.745-15.388-214.67S340.693,491.168,340.693,491.168Z" transform="translate(-114 -81.493)" fill="#2f2e41"/>
    <path id="Path_203" data-name="Path 203" d="M455.775,777.057s-13.156-1.973-13.156-1.316-15.788,43.417,0,42.759,75.65-9.21,71.7-25S490.64,782.32,490.64,782.32l-17.761-9.867Z" transform="translate(-114 -81.493)" fill="#2f2e41"/>
    <path id="Path_204" data-name="Path 204" d="M326.241,763.432s13.156-1.973,13.156-1.316,15.788,43.417,0,42.759-75.65-9.21-71.7-25,23.682-11.183,23.682-11.183l17.761-9.867Z" transform="translate(-114 -81.493)" fill="#2f2e41"/>
    <path id="Path_205" data-name="Path 205" d="M389.155,585.029h38.856a135.9,135.9,0,0,0,0-46.328H389.155a83.36,83.36,0,0,1,0,46.328Z" transform="translate(-114 -81.493)" fill="#d0cde1"/>
    <path id="Path_206" data-name="Path 206" d="M377.84,586.646H416.7a135.9,135.9,0,0,0,0-46.328H377.84a83.36,83.36,0,0,1,0,46.328Z" transform="translate(-114 -81.493)" fill="#5bc0be"/>
    <circle id="Ellipse_12" data-name="Ellipse 12" cx="30.279" cy="30.279" r="30.279" transform="translate(259.716 129.317)" fill="#ffb9b9"/>
    <path id="Path_207" data-name="Path 207" d="M379.934,237.258s-5.386,53.86-12.311,57.707,53.09,7.694,53.09,7.694-14.619-49.243-10-53.86S379.934,237.258,379.934,237.258Z" transform="translate(-114 -81.493)" fill="#ffb9b9"/>
    <path id="Path_208" data-name="Path 208" d="M444.566,293.426S423.022,272.651,398.4,276.5s-42.319,8.464-42.319,8.464-37.7,20.005-38.471,36.163,13.85,76.943,13.85,76.943,6.925,99.256,7.694,99.256,130.033-1.539,130.033-1.539L445.335,366.521Z" transform="translate(-114 -81.493)" fill="#575a89"/>
    <path id="Path_209" data-name="Path 209" d="M439.534,478.573c-4.986,1.346-13.58-.516-22.552-3.455-16-5.255-33.2-13.957-33.2-13.957s-55.4-22.314-71.556-33.855-5.386-57.707-5.386-57.707l24.622,7.694-1.539,28.469L390.707,445a137.129,137.129,0,0,1,28.138,5.655c10.233,3.362,20.174,8.6,23.767,16.65a15.573,15.573,0,0,1,1.185,3.855C444.527,475.411,442.8,477.68,439.534,478.573Z" transform="translate(-114 -81.493)" fill="#ffb9b9"/>
    <path id="Path_210" data-name="Path 210" d="M442.612,467.309c-1.069,3.986-2.108,7.779-3.078,11.264-4.986,1.346-13.58-.516-22.552-3.455l1.862-24.46C429.078,454.02,439.018,459.26,442.612,467.309Z" transform="translate(-114 -81.493)" opacity="0.15"/>
    <path id="Path_211" data-name="Path 211" d="M431.486,354.98l-4.617,40.78-7.656,100.619s-42.357,50.957-18.5,52.5,36.932-50.013,36.932-50.013,23.852-81.559,23.083-98.487,0-45.4,0-45.4Z" transform="translate(-114 -81.493)" fill="#ffb9b9"/>
    <path id="Path_212" data-name="Path 212" d="M438.19,237.71a7.9,7.9,0,0,0,2.177-1.312c1.653-1.6,1.374-4.323.656-6.511s-1.767-4.452-1.253-6.7c.24-1.046.81-2,.973-3.064.387-2.523-1.625-4.822-3.853-6.068s-4.79-1.859-6.9-3.3c-3.229-2.213-5.012-6.115-8.29-8.255-3.206-2.092-7.279-2.157-11.107-2.153l-11.428.013c-5.972.007-12.535.228-16.98,4.217-1.352,1.213-2.423,2.716-3.792,3.909-2.757,2.4-6.479,3.364-9.541,5.366a16.547,16.547,0,0,0-7.347,13.935c.108,5.071,2.58,10,1.938,15.028-.431,3.375-2.253,6.618-1.774,9.986.568,3.995,4.232,6.857,7.99,8.326s7.855,2,11.512,3.7c2.985,1.393,6.1,3.613,9.249,2.638,2.662-.825,4.122-3.635,5.076-6.254a51.036,51.036,0,0,0,2.446-9.442c.383-2.407.637-4.959,2.051-6.945a8,8,0,0,1,7.15-3.084c6.171.542,9.644,11.052,15.319,8.566,2.814-1.232,4.976-4.921,7.23-6.932a36.3,36.3,0,0,1,8.494-5.67Z" transform="translate(-114 -81.493)" fill="#2f2e41"/>
    <path id="Path_213" data-name="Path 213" d="M326.844,314.2s-15.388,5.386-21.544,26.93-3.847,36.163-3.847,36.163l32.316,5.386Z" transform="translate(-114 -81.493)" fill="#575a89"/>
    <path id="Path_214" data-name="Path 214" d="M429.177,291.887s27.7-6.155,31.547,20.005a418.747,418.747,0,0,1,3.847,53.09s-26.16-12.311-37.7,0Z" transform="translate(-114 -81.493)" fill="#575a89"/>
    <rect id="Rectangle_20" data-name="Rectangle 20" width="27" height="3" transform="translate(387 297)" fill="#f2f2f2"/>
    <rect id="Rectangle_21" data-name="Rectangle 21" width="27" height="3" transform="translate(60 322)" fill="#f2f2f2"/>
    <rect id="Rectangle_22" data-name="Rectangle 22" width="27" height="3" transform="translate(387 304)" fill="#f2f2f2"/>
    <rect id="Rectangle_23" data-name="Rectangle 23" width="27" height="3" transform="translate(764 169)" fill="#f2f2f2"/>
    <rect id="Rectangle_24" data-name="Rectangle 24" width="27" height="3" transform="translate(764 183)" fill="#f2f2f2"/>
    <rect id="Rectangle_25" data-name="Rectangle 25" width="27" height="3" transform="translate(764 176)" fill="#f2f2f2"/>
  </g>
</svg>
